<svg width="209" height="24" viewBox="0 0 209 24" fill="none" xmlns="http://www.w3.org/2000/svg">
<path d="M25.2231 12.4663L14.7559 22.9877C14.4278 23.3175 13.8959 23.3175 13.5565 22.9877L3.08926 12.4663C2.7611 12.1365 2.7611 11.6019 3.08926 11.2607L13.5565 0.739329C13.8846 0.409471 14.4165 0.409471 14.7559 0.739329L25.2231 11.2607C25.5513 11.6019 25.5513 12.1365 25.2231 12.4663Z" fill="#A83338"/>
<path d="M23.7295 9.77061C17.2568 10.1915 9.48277 12.6142 4.86589 14.2521L3.10061 12.4777C2.77245 12.1479 2.77245 11.6133 3.10061 11.272L13.5678 0.750705C13.896 0.420847 14.4278 0.420847 14.7673 0.750705L23.7295 9.77061Z" fill="#EF3742"/>
<path d="M53.2186 1.83127H49.4052V22.6464H53.2186V1.83127Z" fill="#A83338"/>
<path d="M82.5155 3.86729C81.0218 2.52511 79.1773 1.84264 77.0499 1.84264C75.8504 1.84264 74.6962 2.09288 73.5872 2.58198C72.6028 3.02558 71.7314 3.62843 70.9959 4.39051C70.3622 3.62843 69.5588 3.02558 68.5969 2.59335C67.5559 2.10425 66.413 1.85402 65.2135 1.85402C64.2743 1.85402 63.3803 1.99051 62.5656 2.27487C61.9319 2.50236 61.3548 2.80947 60.8456 3.1962V2.52511H57.0321V22.6806H60.8456V8.87203C60.8456 7.80283 61.2756 6.93838 62.1469 6.22179C62.9956 5.5052 64.0253 5.14122 65.2135 5.14122C66.3224 5.14122 67.2843 5.51658 68.0764 6.25591C68.8685 6.9725 69.2533 7.82558 69.2533 8.86065V22.6351H73.0667V8.87203C73.0667 7.82558 73.4515 6.9725 74.2549 6.25591C75.0244 5.5052 75.9409 5.14122 77.0612 5.14122C78.1815 5.14122 79.1094 5.5052 79.8789 6.25591C80.671 6.9725 81.0557 7.82558 81.0557 8.86065V22.6351H84.8692V8.87203C84.8692 6.90425 84.0771 5.22084 82.5155 3.86729Z" fill="#A83338"/>
<path d="M106.268 18.836C105.894 18.5062 105.713 18.1194 105.713 17.6531V7.5526C105.713 5.76682 104.898 4.28814 103.28 3.13933C101.764 2.07013 99.9533 1.53554 97.8938 1.53554C95.7438 1.53554 93.8653 2.05876 92.3151 3.09383C90.595 4.24265 89.7237 5.74407 89.7237 7.5526V9.19051H93.5824V8.22369C93.5824 7.25687 94.0011 6.46066 94.8724 5.81231C95.7325 5.17535 96.7509 4.85686 97.9051 4.85686C98.9914 4.85686 99.942 5.18672 100.734 5.84644C101.515 6.50615 101.9 7.27961 101.9 8.22369C101.9 9.03127 101.424 9.61137 100.44 9.98672C99.6817 10.2938 98.5388 10.5099 97.0451 10.6351C94.8045 10.8171 92.8808 11.4313 91.3306 12.455C89.5879 13.6379 88.694 15.1507 88.694 16.9592C88.694 18.7905 89.3956 20.2806 90.7874 21.3611C92.1227 22.4303 93.9332 22.9763 96.1625 22.9763C97.509 22.9763 98.7651 22.7602 99.8967 22.3393C100.972 21.9412 101.843 21.3498 102.511 20.5877C102.828 21.145 103.269 21.6227 103.857 22.0095C104.581 22.4531 105.408 22.6692 106.301 22.6692H107.874V19.3365H107.569C107.06 19.3365 106.63 19.1772 106.268 18.836ZM101.9 14.946C101.9 16.2768 101.334 17.3346 100.18 18.2104C99.0706 19.0749 97.724 19.5185 96.1625 19.5185C95.1553 19.5185 94.2953 19.2796 93.5937 18.8133C92.8582 18.3128 92.4961 17.6986 92.4961 16.9365C92.4961 16.0834 92.8809 15.4009 93.6843 14.8322C94.4538 14.2749 95.393 13.9564 96.4793 13.8654L97.3846 13.8199C99.4214 13.6607 100.892 13.3308 101.866 12.7848L101.9 14.946Z" fill="#A83338"/>
<path d="M127.043 4.23127C125.425 2.65023 123.434 1.84264 121.137 1.84264C119.847 1.84264 118.658 2.05876 117.583 2.49098C116.757 2.84359 116.056 3.33269 115.513 3.93553L115.524 2.50236H111.71V22.6578H115.524V9.89572C115.524 8.62179 116.01 7.56397 117.029 6.66539C118.036 5.77819 119.258 5.32321 120.65 5.32321C122.042 5.32321 123.241 5.77819 124.226 6.66539C125.21 7.56397 125.686 8.61042 125.686 9.89572V22.6578H129.499V9.89572C129.488 7.68909 128.662 5.78956 127.043 4.23127Z" fill="#A83338"/>
<path d="M43.3172 11.8294C41.9027 10.7033 40.1601 10.055 38.1685 9.9071C36.6521 9.79336 35.4527 9.52037 34.604 9.08814C33.5516 8.61042 33.0424 7.92795 33.0424 7.018C33.0424 6.25592 33.3592 5.65307 33.9929 5.18672C34.6606 4.72037 35.5771 4.49288 36.6974 4.49288C38.0327 4.49288 39.1077 4.84549 39.8998 5.52795C40.4769 6.02843 40.839 6.64265 40.9861 7.37061L44.4941 5.82369C44.1206 4.76587 43.4983 3.85592 42.6043 3.11658C41.1332 1.83127 39.153 1.18293 36.6974 1.18293C34.4682 1.18293 32.6576 1.70615 31.3224 2.7526C29.9305 3.81042 29.2176 5.24359 29.2176 7.018C29.2176 8.66729 29.9079 10.1005 31.2545 11.272C32.5219 12.3981 34.1061 13.0578 35.9619 13.2057C37.614 13.3535 38.9719 13.6948 40.0016 14.2294C41.1898 14.855 41.7782 15.6739 41.7782 16.7431C41.7782 17.4825 41.3822 18.0853 40.5561 18.563C39.6961 19.0635 38.508 19.3137 37.0256 19.3137C35.5998 19.3137 34.4455 18.9156 33.5969 18.1194C32.8726 17.4483 32.4766 16.6066 32.3634 15.5716L28.7537 16.9365C29.1045 18.3583 29.84 19.5753 30.9829 20.5535C32.5784 21.9298 34.7398 22.6237 37.4103 22.6237C39.8545 22.6237 41.8461 22.055 43.3398 20.9175C44.8335 19.7687 45.603 18.2104 45.603 16.2881C45.5917 14.5365 44.8335 13.0351 43.3172 11.8294Z" fill="#A83338"/>
<path d="M205.689 9.48625V23.2493H203.561V9.48625C203.561 8.09857 203.03 6.91563 201.989 5.97156C200.993 5.00473 199.748 4.51563 198.311 4.51563C196.862 4.51563 195.629 5.00473 194.633 5.97156C193.592 6.92701 193.06 8.10995 193.06 9.49762V23.2607H190.933V9.49762C190.933 8.10995 190.401 6.92701 189.36 5.98293C188.33 5.01611 187.074 4.52701 185.626 4.52701C184.121 4.52701 182.808 4.99336 181.733 5.90331C180.568 6.85876 179.968 8.06445 179.968 9.49762V23.2607H177.84V3.63981H179.968L179.957 5.34597L181.529 4.16303C181.993 3.81042 182.525 3.52606 183.091 3.32132C183.861 3.05971 184.721 2.92322 185.614 2.92322C186.757 2.92322 187.832 3.16208 188.839 3.62843C189.733 4.03791 190.48 4.59526 191.057 5.28909L191.759 6.1308L192.517 5.34597C193.207 4.62938 194.033 4.04928 194.973 3.62843C196.025 3.16208 197.145 2.92322 198.288 2.92322C200.325 2.92322 202.079 3.57156 203.494 4.84549L203.516 4.85687C204.953 6.11943 205.689 7.67772 205.689 9.48625Z" fill="#A83338"/>
<path d="M150.886 18.5517C150.863 18.5744 148.668 21.3156 144.504 21.3156C139.763 21.3156 136.323 17.7554 136.323 12.8531C136.323 7.9052 139.763 4.31089 144.504 4.31089C148.125 4.31089 150.332 6.74501 150.354 6.76776L150.49 6.91563L151.712 5.31184L151.622 5.20947C151.599 5.17535 149.177 2.36587 144.515 2.36587C138.676 2.36587 134.286 6.87013 134.286 12.8531C134.286 18.8815 138.586 23.2607 144.515 23.2607C149.37 23.2607 151.995 20.1668 152.018 20.1441L152.097 20.0531L151.044 18.381L150.886 18.5517Z" fill="#A83338"/>
<path d="M164.623 2.28625C158.966 2.28625 154.36 7.00663 154.36 12.7962C154.36 18.5858 158.966 23.3062 164.623 23.3062C170.281 23.3062 174.887 18.5858 174.887 12.7962C174.887 7.00663 170.281 2.28625 164.623 2.28625ZM164.623 21.2019C160.108 21.2019 156.431 17.437 156.431 12.7962C156.431 8.15544 160.108 4.39051 164.623 4.39051C169.139 4.39051 172.816 8.15544 172.816 12.7962C172.816 17.437 169.139 21.2019 164.623 21.2019Z" fill="#A83338"/>
<path d="M134.263 19.7232H131.355V22.6464H134.263V19.7232Z" fill="#A83338"/>
</svg>
