<svg width="300px" height="96px" viewBox="0 0 504 58" fill="none" xmlns="http://www.w3.org/2000/svg">
<path d="M60.9558 30.127L35.6601 55.5535C34.8671 56.3507 33.5818 56.3507 32.7614 55.5535L7.46564 30.127C6.67259 29.3298 6.67259 28.0379 7.46564 27.2133L32.7614 1.78671C33.5544 0.989554 34.8397 0.989554 35.6601 1.78671L60.9558 27.2133C61.7489 28.0379 61.7489 29.3298 60.9558 30.127Z" fill="#E6E7E8"/>
<path d="M57.346 23.6123C41.7037 24.6293 22.9165 30.4843 11.7591 34.4426L7.49298 30.1545C6.69993 29.3573 6.69993 28.0654 7.49298 27.2407L32.7887 1.81418C33.5818 1.01702 34.867 1.01702 35.6874 1.81418L57.346 23.6123Z" fill="white"/>
<path d="M128.612 4.42557H119.396V54.7289H128.612V4.42557Z" fill="white"/>
<path d="M199.412 9.34595C195.802 6.10235 191.345 4.45306 186.204 4.45306C183.305 4.45306 180.516 5.0578 177.836 6.23979C175.457 7.31183 173.351 8.7687 171.573 10.6104C170.042 8.7687 168.1 7.31183 165.776 6.26728C163.26 5.08529 160.498 4.48055 157.599 4.48055C155.329 4.48055 153.169 4.81041 151.2 5.49761C149.669 6.04738 148.274 6.78956 147.043 7.72415V6.10235H137.827V54.8114H147.043V21.4407C147.043 18.8569 148.082 16.7678 150.188 15.036C152.239 13.3042 154.728 12.4246 157.599 12.4246C160.279 12.4246 162.604 13.3317 164.518 15.1185C166.432 16.8502 167.362 18.9118 167.362 21.4133V54.7014H176.578V21.4407C176.578 18.9118 177.508 16.8502 179.449 15.1185C181.309 13.3042 183.524 12.4246 186.231 12.4246C188.938 12.4246 191.181 13.3042 193.04 15.1185C194.955 16.8502 195.885 18.9118 195.885 21.4133V54.7014H205.1V21.4407C205.1 16.6853 203.186 12.617 199.412 9.34595Z" fill="white"/>
<path d="M256.813 45.5204C255.911 44.7232 255.473 43.7886 255.473 42.6616V18.2521C255.473 13.9365 253.504 10.363 249.593 7.58671C245.929 5.00282 241.554 3.71088 236.576 3.71088C231.381 3.71088 226.841 4.97533 223.095 7.47675C218.938 10.2531 216.832 13.8815 216.832 18.2521V22.2104H226.157V19.8739C226.157 17.5374 227.169 15.6132 229.275 14.0464C231.353 12.5071 233.814 11.7374 236.604 11.7374C239.229 11.7374 241.526 12.5346 243.44 14.1289C245.327 15.7232 246.257 17.5924 246.257 19.8739C246.257 21.8256 245.109 23.2275 242.729 24.1346C240.897 24.8768 238.135 25.399 234.525 25.7014C229.111 26.1412 224.462 27.6256 220.715 30.0995C216.504 32.9583 214.344 36.6142 214.344 40.9848C214.344 45.4104 216.039 49.0113 219.403 51.6227C222.63 54.2066 227.005 55.526 232.392 55.526C235.647 55.526 238.682 55.0038 241.417 53.9867C244.015 53.0246 246.12 51.5952 247.734 49.7535C248.5 51.1004 249.566 52.255 250.988 53.1895C252.738 54.2616 254.735 54.7839 256.895 54.7839H260.696V46.7298H259.958C258.727 46.7298 257.688 46.345 256.813 45.5204ZM246.257 36.1194C246.257 39.3355 244.89 41.8919 242.1 44.0085C239.42 46.0976 236.166 47.1696 232.392 47.1696C229.959 47.1696 227.88 46.5924 226.185 45.4654C224.407 44.2559 223.532 42.7715 223.532 40.9298C223.532 38.8682 224.462 37.2189 226.403 35.8445C228.263 34.4976 230.533 33.7279 233.158 33.508L235.346 33.3981C240.268 33.0132 243.823 32.2161 246.175 30.8967L246.257 36.1194Z" fill="white"/>
<path d="M307.022 10.2256C303.111 6.40472 298.298 4.45306 292.747 4.45306C289.629 4.45306 286.758 4.97534 284.16 6.01989C282.163 6.87202 280.468 8.05401 279.155 9.51088L279.183 6.04738H269.967V54.7564H279.183V23.9147C279.183 20.836 280.359 18.2796 282.82 16.108C285.254 13.964 288.207 12.8644 291.571 12.8644C294.934 12.8644 297.833 13.964 300.212 16.108C302.591 18.2796 303.74 20.8085 303.74 23.9147V54.7564H312.956V23.9147C312.928 18.582 310.932 13.9915 307.022 10.2256Z" fill="white"/>
<path d="M104.683 28.5876C101.265 25.8663 97.0535 24.2995 92.2405 23.9421C88.576 23.6673 85.6772 23.0075 83.6262 21.963C81.083 20.8085 79.8524 19.1592 79.8524 16.9602C79.8524 15.1185 80.6181 13.6616 82.1495 12.5346C83.763 11.4075 85.9781 10.8578 88.6854 10.8578C91.9123 10.8578 94.5102 11.7099 96.4245 13.3592C97.8192 14.5687 98.6943 16.053 99.0498 17.8123L107.527 14.0739C106.625 11.5175 105.121 9.31845 102.96 7.53172C99.4053 4.42556 94.6196 2.85873 88.6854 2.85873C83.2981 2.85873 78.9226 4.12319 75.6957 6.6521C72.332 9.2085 70.6092 12.672 70.6092 16.9602C70.6092 20.9459 72.2774 24.4094 75.5316 27.2407C78.5945 29.962 82.423 31.5564 86.9079 31.9137C90.9005 32.2711 94.1821 33.0957 96.6706 34.3876C99.542 35.8995 100.964 37.8786 100.964 40.4625C100.964 42.2493 100.007 43.7061 98.0106 44.8606C95.9323 46.0701 93.0609 46.6749 89.4784 46.6749C86.0328 46.6749 83.2434 45.7128 81.1924 43.7886C79.4422 42.1668 78.4851 40.1327 78.2116 37.6312L69.488 40.9298C70.3357 44.3658 72.1133 47.3071 74.8753 49.6711C78.7312 52.9971 83.9544 54.6739 90.4082 54.6739C96.3151 54.6739 101.128 53.2995 104.738 50.5507C108.348 47.7744 110.207 44.0085 110.207 39.363C110.18 35.1298 108.348 31.5014 104.683 28.5876Z" fill="white"/>
<!-- <path d="M497.081 22.9251V56.1857H491.94V22.9251C491.94 19.5715 490.655 16.7128 488.139 14.4312C485.732 12.0948 482.724 10.9128 479.251 10.9128C475.751 10.9128 472.77 12.0948 470.364 14.4312C467.848 16.7403 466.562 19.599 466.562 22.9526V56.2132H461.421V22.9526C461.421 19.599 460.136 16.7403 457.62 14.4587C455.131 12.1222 452.096 10.9403 448.596 10.9403C444.958 10.9403 441.786 12.0673 439.188 14.2663C436.372 16.5753 434.922 19.4891 434.922 22.9526V56.2132H429.781V8.79618H434.922L434.895 12.9194L438.696 10.0606C439.817 9.2085 441.103 8.52129 442.47 8.02651C444.329 7.39428 446.408 7.06442 448.568 7.06442C451.33 7.06442 453.928 7.64167 456.362 8.76869C458.522 9.75826 460.327 11.1052 461.722 12.782L463.417 14.8161L465.25 12.9194C466.918 11.1876 468.914 9.78575 471.184 8.76869C473.727 7.64167 476.435 7.06442 479.197 7.06442C484.119 7.06442 488.358 8.63125 491.776 11.7099L491.831 11.7374C495.304 14.7886 497.081 18.5545 497.081 22.9251Z" fill="white"/>
<path d="M364.641 44.8332C364.586 44.8881 359.281 51.5128 349.218 51.5128C337.759 51.5128 329.446 42.909 329.446 31.0616C329.446 19.1043 337.759 10.418 349.218 10.418C357.969 10.418 363.301 16.3005 363.356 16.3554L363.684 16.7128L366.637 12.837L366.419 12.5896C366.364 12.5071 360.512 5.71753 349.245 5.71753C335.134 5.71753 324.523 16.6028 324.523 31.0616C324.523 45.6303 334.915 56.2133 349.245 56.2133C360.977 56.2133 367.321 48.7365 367.376 48.6815L367.567 48.4616L365.024 44.4208L364.641 44.8332Z" fill="white"/>
<path d="M397.84 5.52509C384.167 5.52509 373.037 16.9327 373.037 30.9241C373.037 44.9156 384.167 56.3232 397.84 56.3232C411.513 56.3232 422.644 44.9156 422.644 30.9241C422.644 16.9327 411.513 5.52509 397.84 5.52509ZM397.84 51.2379C386.929 51.2379 378.041 42.1393 378.041 30.9241C378.041 19.709 386.929 10.6104 397.84 10.6104C408.751 10.6104 417.639 19.709 417.639 30.9241C417.639 42.1393 408.751 51.2379 397.84 51.2379Z" fill="white"/>
<path d="M324.469 47.6644H317.441V54.7289H324.469V47.6644Z" fill="white"/> -->
</svg>
